PathFileType	4	(x/y/z)	S04_M20_T12.trc
DataRate	CameraRate	NumFrames	NumMarkers	Units	OrigDataRate	OrigDataStartFrame	OrigNumFrames
240	240	8	51	mm	240	335	535
Frame#	Time	Sternum			R.Acromium			L.Acromium			Top.Head			R.ASIS			L.ASIS			R.PSIS			L.PSIS			R.Great.Tro			L.Great.Tro			R.Iliac.Crest			L.Iliac.Crest			V.Sacral			R.Thigh.Upper.Post			R.Thigh.Lower.Ant			R.Thigh.Lower.Post			R.Thigh.Upper.Ant			R.Knee.Lat			R.Knee.Med			R.Shank.Upper.Post			R.Shank.Lower.Ant			R.Shank.Lower.Post			R.Shank.Upper.Ant			R.Ankle.Lat			R.Ankle.Med			R.Heel.Upper			R.Heel.Med			R.Heel.Lat			R.Toe.Lat			R.Toe.Med			R.Toe.Tip			L.Thigh.Upper.Post			L.Thigh.Lower.Ant			L.Thigh.Lower.Post			L.Thigh.Upper.Ant			L.Knee.Lat			L.Knee.Med			L.Shank.Upper.Post			L.Shank.Lower.Ant			L.Shank.Lower.Post			L.Shank.Upper.Ant			L.Ankle.Lat			L.Ankle.Med			L.Heel.Upper			L.Heel.Med			L.Heel.Lat			L.Toe.Lat			L.Toe.Med			L.Toe.Tip			Cervical.Spine			Back			
		X1	Y1	Z1	X2	Y2	Z2	X3	Y3	Z3	X4	Y4	Z4	X5	Y5	Z5	X6	Y6	Z6	X7	Y7	Z7	X8	Y8	Z8	X9	Y9	Z9	X10	Y10	Z10	X11	Y11	Z11	X12	Y12	Z12	X13	Y13	Z13	X14	Y14	Z14	X15	Y15	Z15	X16	Y16	Z16	X17	Y17	Z17	X18	Y18	Z18	X19	Y19	Z19	X20	Y20	Z20	X21	Y21	Z21	X22	Y22	Z22	X23	Y23	Z23	X24	Y24	Z24	X25	Y25	Z25	X26	Y26	Z26	X27	Y27	Z27	X28	Y28	Z28	X29	Y29	Z29	X30	Y30	Z30	X31	Y31	Z31	X32	Y32	Z32	X33	Y33	Z33	X34	Y34	Z34	X35	Y35	Z35	X36	Y36	Z36	X37	Y37	Z37	X38	Y38	Z38	X39	Y39	Z39	X40	Y40	Z40	X41	Y41	Z41	X42	Y42	Z42	X43	Y43	Z43	X44	Y44	Z44	X45	Y45	Z45	X46	Y46	Z46	X47	Y47	Z47	X48	Y48	Z48	X49	Y49	Z49	X50	Y50	Z50	X51	Y51	Z51	

335	1.3917	910.05	1249.4	281.18	767.58	1476.4	444.15	791.13	1463.5	92.817	807.71	1804.1	258.48	855.72	968.49	424.55	908.97	981.59	176.14	671.09	1009.3	275.61	696.35	1009.8	197.64	745.32	897.3	462.42	815.62	896.8	84.68	763.59	1058.8	446.3	814.25	1061.8	104.18	662.57	967.87	233.46	677.61	653.39	436.73	731.02	554.37	407.46	655.64	566.47	420.42	766.24	656.82	434.03	654.91	493.86	410.77	643.97	498.91	274.06	507.02	304.98	387.12	548.7	211.36	341.48	484.13	240.93	365.31	566.81	277.02	371.51	460.74	129.8	337.86	481.78	142.08	249.15	388.22	112.72	280.89	389.92	79.405	252.05	386.22	82.029	316.96	552.05	42.975	364.85	585.42	37.914	245.49	651.37	43.632	292.3	877.61	657.53	99.524	990.92	601.67	114.93	921.21	580.13	117.69	944.92	675.99	92.453	996.55	515.23	128.33	997.82	504.68	258.36	1010.6	316.96	133.98	1115.4	279.83	133.44	1056.6	254.25	141.89	1070.3	341.62	124.62	1188.2	138.66	153.5	1183.8	153.76	246.24	1141.1	68.204	202.89	1159.8	53.642	238.8	1162.3	46.508	177.64	1317	143.61	137.29	1333.8	176.68	250.19	1372.4	216.76	201.02	731.13	1523.5	269.5	654.13	1265.2	240.05
336	1.3958	915.61	1248.6	280.85	773.05	1475.7	443.58	796.89	1462.6	92.271	813.36	1803.3	257.78	860.87	967.73	424.42	914.7	980.78	176.11	676.63	1008.6	274.98	702.07	1009	197.08	750.27	896.74	462.05	821.55	896.06	84.401	768.82	1058.1	445.91	820	1060.9	103.86	668.18	967.15	232.83	681.88	653.15	436.52	735.02	553.92	407.47	659.64	566.3	420.25	770.52	656.27	433.98	658.64	493.64	410.67	648.04	498.6	273.97	509.39	305.76	387.03	550.28	211.88	341.49	485.98	241.9	365.2	568.96	277.37	371.5	461.72	130.92	337.79	482.89	143.05	249.11	389.09	114.46	280.82	390.54	81.153	251.98	386.86	83.736	316.86	552.28	43.15	364.83	585.58	37.945	245.5	651.53	43.466	292.26	883.77	656.82	99.451	996.97	601.12	115.17	927.27	579.51	117.65	950.99	675.42	92.522	1002.5	514.59	128.41	1003.5	504.08	258.49	1016.5	316.25	134.18	1121.4	279.13	133.65	1062.5	253.56	142.14	1076.2	340.91	124.78	1193.9	138.09	153.78	1189.9	153.24	246.57	1147.3	67.464	203.45	1166.2	52.95	239.31	1168.4	45.812	178.15	1322.7	143.46	137.06	1339.8	176.63	249.88	1378	216.88	200.54	736.77	1522.7	268.88	659.74	1264.5	239.49
337	1.4	921.2	1247.7	280.5	778.56	1475	443.01	802.66	1461.8	91.716	819.03	1802.6	257.06	866.07	966.99	424.27	920.47	980	176.07	682.19	1007.9	274.36	707.82	1008.2	196.52	755.27	896.18	461.67	827.52	895.33	84.114	774.1	1057.4	445.52	825.77	1060	103.53	673.83	966.41	232.21	686.23	652.9	436.31	739.1	553.47	407.49	663.73	566.12	420.07	774.88	655.73	433.94	662.46	493.4	410.58	652.21	498.29	273.88	511.84	306.56	386.94	551.92	212.43	341.51	487.91	242.9	365.09	571.17	277.74	371.49	462.75	132.08	337.74	484.04	144.06	249.08	390.02	116.27	280.76	391.21	82.973	251.9	387.53	85.508	316.77	552.53	43.336	364.82	585.75	37.978	245.51	651.7	43.306	292.22	890.03	656.14	99.381	1003.1	600.64	115.43	933.45	578.93	117.61	957.16	674.91	92.596	1008.6	513.99	128.5	1009.4	503.52	258.61	1022.3	315.56	134.35	1127.1	278.34	133.85	1068.2	252.84	142.35	1082	340.15	124.92	1199.4	137.34	154.05	1195.6	152.52	246.88	1153	66.618	203.94	1172.1	52.119	239.77	1174.1	44.991	178.6	1328	143	136.86	1345.5	176.21	249.6	1383.4	216.59	200.12	742.44	1522	268.26	665.37	1263.7	238.93
338	1.4042	926.82	1246.9	280.14	784.1	1474.3	442.43	808.45	1460.9	91.152	824.69	1801.8	256.32	871.3	966.25	424.12	926.27	979.24	176.01	687.78	1007.1	273.72	713.6	1007.5	195.96	760.32	895.62	461.28	833.54	894.62	83.819	779.42	1056.7	445.12	831.55	1059.1	103.2	679.52	965.67	231.58	690.66	652.65	436.09	743.28	553.02	407.5	667.9	565.93	419.9	779.32	655.2	433.89	666.38	493.17	410.48	656.47	497.96	273.8	514.37	307.38	386.85	553.6	213.01	341.54	489.91	243.94	364.97	573.45	278.13	371.48	463.83	133.29	337.69	485.26	145.1	249.06	391	118.15	280.71	391.92	84.868	251.83	388.25	87.344	316.67	552.8	43.532	364.8	585.91	38.013	245.51	651.86	43.152	292.18	896.39	655.49	99.314	1009.4	600.21	115.67	939.74	578.4	117.57	963.42	674.44	92.672	1014.7	513.43	128.58	1015.3	503	258.71	1028	314.91	134.48	1132.7	277.44	134.04	1073.7	252.09	142.53	1087.8	339.34	125.07	1204.5	136.42	154.28	1200.9	151.61	247.18	1158.2	65.678	204.38	1177.6	51.16	240.16	1179.2	44.053	178.98	1332.9	142.23	136.69	1350.8	175.43	249.37	1388.4	215.91	199.77	748.13	1521.2	267.63	671.03	1263	238.37
339	1.4083	932.47	1246.2	279.75	789.69	1473.6	441.84	814.25	1460.1	90.578	830.36	1801.1	255.58	876.58	965.52	423.95	932.12	978.5	175.94	693.41	1006.4	273.08	719.42	1006.7	195.4	765.43	895.06	460.88	839.61	893.93	83.516	784.79	1056	444.71	837.35	1058.3	102.88	685.25	964.93	230.95	695.17	652.4	435.88	747.55	552.57	407.52	672.16	565.74	419.74	783.84	654.67	433.84	670.4	492.92	410.39	660.84	497.63	273.72	516.97	308.23	386.76	555.33	213.63	341.58	491.98	245	364.85	575.8	278.53	371.48	464.96	134.53	337.66	486.54	146.17	249.04	392.05	120.1	280.66	392.68	86.838	251.75	389.02	89.248	316.58	553.08	43.74	364.79	586.08	38.05	245.52	652.02	43.004	292.13	902.84	654.89	99.248	1015.8	599.83	115.92	946.13	577.91	117.54	969.76	674.03	92.749	1021	512.9	128.67	1021.4	502.51	258.81	1033.5	314.28	134.57	1138.1	276.44	134.23	1079.1	251.32	142.68	1093.4	338.49	125.2	1209.2	135.34	154.5	1205.9	150.51	247.45	1163	64.659	204.75	1182.6	50.088	240.49	1184	43.013	179.31	1337.5	141.17	136.56	1355.8	174.29	249.19	1393.2	214.84	199.5	753.84	1520.5	267	676.72	1262.2	237.8
340	1.4125	938.16	1245.4	279.35	795.32	1473	441.24	820.07	1459.3	89.993	836.04	1800.3	254.83	881.91	964.81	423.78	938.01	977.79	175.86	699.07	1005.6	272.44	725.27	1006	194.83	770.59	894.5	460.47	845.73	893.27	83.206	790.2	1055.3	444.29	843.17	1057.4	102.55	691.03	964.18	230.31	699.77	652.15	435.66	751.92	552.12	407.55	676.51	565.55	419.58	788.44	654.15	433.79	674.52	492.68	410.29	665.3	497.29	273.65	519.66	309.11	386.67	557.11	214.28	341.63	494.12	246.09	364.72	578.22	278.94	371.49	466.15	135.82	337.63	487.88	147.28	249.03	393.15	122.12	280.62	393.5	88.887	251.68	389.83	91.221	316.48	553.37	43.958	364.78	586.25	38.09	245.52	652.19	42.862	292.09	909.36	654.33	99.181	1022.2	599.5	116.16	952.61	577.47	117.5	976.18	673.66	92.824	1027.4	512.39	128.77	1027.6	502.06	258.89	1039	313.67	134.63	1143.4	275.36	134.42	1084.2	250.51	142.8	1099	337.6	125.34	1213.6	134.1	154.7	1210.5	149.24	247.72	1167.4	63.578	205.07	1187.1	48.921	240.77	1188.2	41.89	179.57	1341.8	139.83	136.46	1360.4	172.82	249.05	1397.7	213.4	199.31	759.58	1519.8	266.36	682.43	1261.5	237.24
341	1.4167	943.88	1244.6	278.93	800.99	1472.3	440.63	825.91	1458.5	89.398	841.73	1799.6	254.06	887.29	964.1	423.59	943.94	977.12	175.76	704.78	1004.9	271.78	731.17	1005.2	194.26	775.81	893.94	460.05	851.9	892.62	82.89	795.65	1054.7	443.86	849.03	1056.6	102.23	696.84	963.44	229.68	704.44	651.89	435.45	756.37	551.68	407.58	680.94	565.35	419.42	793.13	653.64	433.73	678.73	492.42	410.2	669.86	496.93	273.58	522.42	310.01	386.58	558.96	214.96	341.7	496.34	247.22	364.6	580.71	279.38	371.5	467.4	137.15	337.61	489.28	148.43	249.04	394.33	124.21	280.58	394.37	91.016	251.61	390.7	93.265	316.39	553.69	44.187	364.77	586.42	38.132	245.52	652.35	42.727	292.03	915.93	653.81	99.112	1028.7	599.21	116.39	959.16	577.06	117.46	982.66	673.33	92.896	1033.8	511.92	128.86	1033.8	501.62	258.95	1044.4	313.09	134.66	1148.5	274.19	134.6	1089.2	249.69	142.89	1104.5	336.67	125.47	1217.8	132.73	154.89	1214.8	147.81	247.97	1171.4	62.458	205.34	1191.1	47.682	240.99	1192	40.704	179.77	1345.8	138.22	136.41	1364.8	171.02	248.98	1402	211.6	199.2	765.34	1519.1	265.71	688.16	1260.8	236.67
342	1.4208	949.63	1243.9	278.5	806.7	1471.7	440.02	831.76	1457.7	88.792	847.42	1798.9	253.29	892.71	963.42	423.4	949.93	976.47	175.65	710.53	1004.1	271.12	737.1	1004.5	193.67	781.09	893.39	459.63	858.14	892.01	82.567	801.16	1054.1	443.43	854.93	1055.8	101.9	702.71	962.7	229.03	709.21	651.63	435.24	760.93	551.24	407.62	685.45	565.14	419.27	797.9	653.13	433.69	683.05	492.16	410.11	674.52	496.57	273.52	525.27	310.94	386.5	560.86	215.67	341.79	498.64	248.39	364.48	583.28	279.83	371.51	468.71	138.52	337.6	490.77	149.62	249.06	395.58	126.37	280.55	395.31	93.228	251.54	391.63	95.384	316.29	554.02	44.427	364.77	586.6	38.176	245.52	652.51	42.599	291.98	922.56	653.33	99.038	1035.3	598.96	116.61	965.77	576.68	117.43	989.21	673.04	92.963	1040.3	511.46	128.96	1040.1	501.21	258.98	1049.6	312.52	134.65	1153.4	272.95	134.79	1094	248.84	142.95	1109.9	335.7	125.59	1221.6	131.24	155.06	1218.8	146.25	248.21	1175	61.324	205.55	1194.8	46.397	241.16	1195.5	39.479	179.92	1349.5	136.37	136.41	1368.8	168.93	248.96	1406	209.47	199.18	771.11	1518.4	265.05	693.93	1260.1	236.11
